<?xml version="1.0" encoding="iso-8859-1"?>
<!-- Generator: Adobe Illustrator 19.0.0, SVG Export Plug-In . SVG Version: 6.00 Build 0)  -->
<svg version="1.1" id="Capa_1" xmlns="http://www.w3.org/2000/svg" xmlns:xlink="http://www.w3.org/1999/xlink" x="0px" y="0px"
	 viewBox="0 0 512 512" style="enable-background:new 0 0 512 512;" xml:space="preserve">
<g>
	<path style="fill:#C86D5C;" d="M256,427.49c-10.379,0-18.794-8.413-18.794-18.794V49.742c0-10.379,8.413-18.794,18.794-18.794
		c10.379,0,18.793,8.413,18.793,18.794v358.954C274.793,419.076,266.379,427.49,256,427.49z"/>
	<path style="fill:#C86D5C;" d="M379.314,378.626H59.876l-23.99,12.686c5.892,14.724,13.7,30.755,23.99,46.514l35.031,16.6h248.699
		l38.558-16.6c9.227-12.77,19.038-28.303,28.115-46.514L379.314,378.626z"/>
</g>
<g>
	<path style="fill:#B35948;" d="M436.458,303.453v15.495c-6.484,27.504-15.852,51.663-26.179,72.364H35.886
		c-13.766-34.345-17.093-61.548-17.093-61.548V310.97h121.217l27.25,36.647h142.829l37.587-28.669L436.458,303.453z"/>
	<path style="fill:#B35948;" d="M382.164,437.826c-8.166,11.313-15.871,20.447-22.204,27.364
		c-9.265,10.121-22.364,15.862-36.083,15.862H116.923c-13.973,0-27.269-5.985-36.582-16.407
		c-7.724-8.645-14.508-17.684-20.466-26.818h322.288V437.826z"/>
	<path style="fill:#B35948;" d="M237.206,123.911v179.82c6.111-0.26,12.378-0.408,18.794-0.408c6.424,0,12.695,0.16,18.793,0.448
		v-179.86L256,121.798L237.206,123.911z"/>
</g>
<path style="fill:#3A484A;" d="M88.835,109.881c0,0,50.935,80.812,0,201.089l34.888-18.794c0,0,52.188-19.759,132.276-19.759
	s137.64,22.528,137.64,22.528l29.525,16.024c50.935-120.278,0-201.089,0-201.089L256,91.088L88.835,109.881z"/>
<path style="fill:#EFEDEE;" d="M321.206,193.648c0-34.163-27.694-61.857-61.857-61.857s-61.857,27.694-61.857,61.857
	c0,19.382,8.919,29.147,22.871,33.973v10.331c0,5.383,4.364,9.747,9.747,9.747s9.747-4.364,9.747-9.747
	c0,5.383,4.364,9.747,9.747,9.747c5.383,0,9.747-4.364,9.747-9.747c0,5.383,4.364,9.747,9.747,9.747
	c5.383,0,9.747-4.364,9.747-9.747c0,5.383,4.364,9.747,9.747,9.747c5.383,0,9.747-4.364,9.747-9.747v-10.331
	C312.286,222.795,321.206,213.03,321.206,193.648z"/>
<g>
	<path style="fill:#3A484A;" d="M226.601,215.866c-4.267,0-7.726-3.459-7.726-7.726v-5.927c0-4.267,3.459-7.726,7.726-7.726
		c4.267,0,7.726,3.459,7.726,7.726v5.927C234.327,212.407,230.868,215.866,226.601,215.866z"/>
	<path style="fill:#3A484A;" d="M292.096,215.866c-4.267,0-7.726-3.459-7.726-7.726v-5.927c0-4.267,3.459-7.726,7.726-7.726
		c4.267,0,7.726,3.459,7.726,7.726v5.927C299.823,212.407,296.365,215.866,292.096,215.866z"/>
</g>
<path style="fill:#C86D5C;" d="M423.164,109.881H88.835c-10.379,0-18.794-8.413-18.794-18.794s8.413-18.794,18.794-18.794h334.33
	c10.379,0,18.794,8.413,18.794,18.794S433.543,109.881,423.164,109.881z"/>
<path style="fill:#E3B098;" d="M511.439,281.073c-2.034-6.501-8.953-10.124-15.455-8.089l-0.478,0.149
	c-47.225,14.782-96.871,23.3-146.306,25.483c-0.043,0.002-0.088,0.004-0.131,0.006c-5.59,0.244-10.615,0.664-15.15,4.364
	l-30.521,24.898H173.238l-12.659-25.319c-3.09-6.148-9.46-10.388-16.809-10.388H18.794C8.415,292.177,0,300.591,0,310.97
	c0,10.379,8.415,18.794,18.794,18.794h113.361l12.659,25.319c3.09,6.148,9.46,10.388,16.809,10.388h148.468
	c4.174-0.002,8.393-1.387,11.88-4.231l31.549-25.737c4.683-0.634,9.357-1.308,14.027-2.037c47.08-7.335,92.573-19.36,136.757-37.28
	C510.169,293.787,513.366,287.234,511.439,281.073z"/>
<rect x="237.209" y="49.737" style="fill:#B35948;" width="37.586" height="22.366"/>
<g>
</g>
<g>
</g>
<g>
</g>
<g>
</g>
<g>
</g>
<g>
</g>
<g>
</g>
<g>
</g>
<g>
</g>
<g>
</g>
<g>
</g>
<g>
</g>
<g>
</g>
<g>
</g>
<g>
</g>
</svg>
