<?xml version="1.0" encoding="iso-8859-1"?>
<!-- Generator: Adobe Illustrator 19.0.0, SVG Export Plug-In . SVG Version: 6.00 Build 0)  -->
<svg version="1.1" id="Capa_1" xmlns="http://www.w3.org/2000/svg" xmlns:xlink="http://www.w3.org/1999/xlink" x="0px" y="0px"
	 viewBox="0 0 512 512" style="enable-background:new 0 0 512 512;" xml:space="preserve">
<polygon style="fill:#FEC478;" points="87.874,45.798 31,21.299 31,297.9 116.499,221.1 122.875,97.674 "/>
<polygon style="fill:#FEB756;" points="424.75,47.673 374.125,119.55 395.501,221.1 481,297.9 481,21.599 "/>
<path style="fill:#FE8821;" d="M199.3,133.799C177.312,71.354,124.459,20.329,48.999,3.6L31,0v21.299
	C53.704,74.4,36.936,35.212,116.499,221.1c30.244-27.181,12.745-11.445,86.4-77.701L199.3,133.799z"/>
<path style="fill:#E5741A;" d="M463.001,3.6C387.85,20.26,334.794,71.052,312.7,133.799l-3.6,9.6
	c73.645,66.247,56.156,50.52,86.4,77.701L481,21.599V0L463.001,3.6z"/>
<path style="fill:#FE9923;" d="M448.001,211l-22.8,30H376c-57.9,0-105,47.1-105,105h-30c0-57.9-47.1-105-105-105H87.4l-23.401-30
	L87.7,177.7c4.499-6,9.3-12.001,14.399-16.802c21.301-21.899,50.4-35.698,81.601-39.3c5.1-0.298,9.599-0.598,14.1-0.598h116.4
	c4.501,0,9,0.3,13.801,0.599c31.5,3.602,60.599,17.401,82.2,39.3c4.799,4.801,9.6,10.801,14.099,16.801L448.001,211z"/>
<path style="fill:#FE8821;" d="M448.001,211l-22.8,30H376c-57.9,0-105,47.1-105,105h-15V121h58.2c4.501,0,9,0.3,13.801,0.599
	c31.5,3.602,60.599,17.401,82.2,39.3c4.799,4.801,9.6,10.801,14.099,16.801L448.001,211z"/>
<path style="fill:#FEDBAB;" d="M510.116,342.999c-4.801,20.7-18.3,38.401-36.899,48.9l-144.316,80.7l-32.999-14.7L256,436
	l-1.199-0.601l-40.201,22.5l-31.5,14.7l-144.316-80.7c-18.6-10.499-32.098-28.2-36.899-48.9c-4.799-20.999-0.3-42.9,12.001-60.298
	L63.999,211H136c52.5,0,97.8,30.599,120,74.399C278.2,241.599,323.5,211,376,211h72.001l50.114,71.7
	C510.415,300.099,514.914,322,510.116,342.999z"/>
<path style="fill:#FEC478;" d="M510.116,342.999c-4.801,20.7-18.3,38.401-36.899,48.9l-144.316,80.7l-32.999-14.7L256,436V285.399
	C278.2,241.599,323.5,211,376,211h72.001l50.114,71.7C510.415,300.099,514.914,322,510.116,342.999z"/>
<path style="fill:#896748;" d="M321.7,459.699C308.2,435.7,283.299,421,256,421s-52.2,14.7-65.7,38.699l-7.2,12.9L256,512
	l72.9-39.401L321.7,459.699z"/>
<path style="fill:#73553A;" d="M321.7,459.699l7.2,12.9L256,512v-91C283.299,421,308.2,435.7,321.7,459.699z"/>
<path style="fill:#57555C;" d="M180.975,346.8h-30c0-24.813-20.187-45-45-45v-30C147.33,271.8,180.975,305.445,180.975,346.8z"/>
<path style="fill:#3C3A41;" d="M360.975,346.8h-30c0-41.355,33.645-75,75-75v30C381.161,301.8,360.975,321.987,360.975,346.8z"/>
<g>
</g>
<g>
</g>
<g>
</g>
<g>
</g>
<g>
</g>
<g>
</g>
<g>
</g>
<g>
</g>
<g>
</g>
<g>
</g>
<g>
</g>
<g>
</g>
<g>
</g>
<g>
</g>
<g>
</g>
</svg>
