<?xml version="1.0" encoding="iso-8859-1"?>
<!-- Generator: Adobe Illustrator 19.0.0, SVG Export Plug-In . SVG Version: 6.00 Build 0)  -->
<svg version="1.1" id="Capa_1" xmlns="http://www.w3.org/2000/svg" xmlns:xlink="http://www.w3.org/1999/xlink" x="0px" y="0px"
	 viewBox="0 0 512 512" style="enable-background:new 0 0 512 512;" xml:space="preserve">
<circle style="fill:#FD3018;" cx="256" cy="256" r="256"/>
<path style="fill:#DA0100;" d="M512,256c0-11.418-0.759-22.657-2.207-33.68L390.473,103l-97.597,72.35L256,175.316h-25.051
	l-36.507-36.495l-77.528,191.513l178.624,178.624C418.148,489.949,512,383.938,512,256z"/>
<polygon style="fill:#FEC478;" points="155.519,130.372 121.527,115.729 121.527,281.042 172.627,235.142 176.437,161.375 "/>
<polygon style="fill:#FEB756;" points="356.854,131.492 326.598,174.45 339.373,235.142 390.473,281.042 390.473,115.909 "/>
<path style="fill:#FE8821;" d="M222.113,182.966c-13.141-37.32-44.729-67.816-89.828-77.814L121.527,103v12.729
	c13.569,31.736,3.548,8.316,51.099,119.412c18.076-16.245,7.617-6.84,51.638-46.438L222.113,182.966z"/>
<path style="fill:#E5741A;" d="M379.715,105.151c-44.914,9.957-76.623,40.313-89.828,77.814l-2.151,5.738
	c44.014,39.593,33.562,30.194,51.638,46.438l51.099-119.233V103L379.715,105.151z"/>
<path style="fill:#FE9923;" d="M370.75,229.105l-13.627,17.93h-29.405c-34.604,0-62.754,28.15-62.754,62.754h-17.93
	c0-34.604-28.15-62.754-62.754-62.754h-29.046l-13.986-17.93l14.165-19.902c2.689-3.586,5.558-7.172,8.606-10.042
	c12.73-13.088,30.122-21.335,48.769-23.488c3.048-0.178,5.737-0.358,8.426-0.358h69.567c2.69,0,5.379,0.179,8.248,0.358
	c18.826,2.153,36.217,10.4,49.127,23.488c2.868,2.869,5.738,6.456,8.426,10.042L370.75,229.105z"/>
<path style="fill:#FE8821;" d="M370.75,229.105l-13.627,17.93h-29.405c-34.604,0-62.754,28.15-62.754,62.754H256V175.316h34.784
	c2.69,0,5.379,0.179,8.248,0.358c18.826,2.153,36.217,10.4,49.127,23.488c2.868,2.869,5.738,6.456,8.426,10.042L370.75,229.105z"/>
<path style="fill:#FEDBAB;" d="M407.874,307.995c-2.869,12.372-10.937,22.951-22.053,29.225l-86.252,48.231l-19.722-8.785
	L256,363.578l-0.717-0.359l-24.026,13.447l-18.826,8.785l-86.252-48.231c-11.116-6.275-19.184-16.854-22.053-29.225
	c-2.868-12.55-0.179-25.639,7.172-36.038l29.951-42.852h43.032c31.377,0,58.451,18.288,71.719,44.465
	c13.268-26.178,40.342-44.465,71.719-44.465h43.032l29.951,42.852C408.053,282.356,410.742,295.446,407.874,307.995z"/>
<path style="fill:#FEC478;" d="M407.874,307.995c-2.869,12.372-10.937,22.951-22.053,29.225l-86.252,48.231l-19.722-8.785
	L256,363.578v-90.007c13.268-26.178,40.342-44.465,71.719-44.465h43.032l29.951,42.852
	C408.053,282.356,410.742,295.446,407.874,307.995z"/>
<path style="fill:#896748;" d="M295.266,377.742c-8.069-14.344-22.951-23.129-39.266-23.129s-31.197,8.785-39.266,23.129
	l-4.303,7.71L256,409l43.569-23.548L295.266,377.742z"/>
<path style="fill:#73553A;" d="M295.266,377.742l4.303,7.71L256,409v-54.387C272.316,354.613,287.197,363.399,295.266,377.742z"/>
<path style="fill:#57555C;" d="M211.161,310.267h-17.93c0-14.83-12.065-26.895-26.895-26.895v-17.93
	C191.053,265.443,211.161,285.551,211.161,310.267z"/>
<path style="fill:#3C3A41;" d="M318.739,310.267h-17.93c0-24.716,20.108-44.824,44.824-44.824v17.93
	C330.804,283.373,318.739,295.437,318.739,310.267z"/>
<g>
</g>
<g>
</g>
<g>
</g>
<g>
</g>
<g>
</g>
<g>
</g>
<g>
</g>
<g>
</g>
<g>
</g>
<g>
</g>
<g>
</g>
<g>
</g>
<g>
</g>
<g>
</g>
<g>
</g>
</svg>
