<?xml version="1.0" encoding="iso-8859-1"?>
<!-- Generator: Adobe Illustrator 19.0.0, SVG Export Plug-In . SVG Version: 6.00 Build 0)  -->
<svg version="1.1" id="Capa_1" xmlns="http://www.w3.org/2000/svg" xmlns:xlink="http://www.w3.org/1999/xlink" x="0px" y="0px"
	 viewBox="0 0 512 512" style="enable-background:new 0 0 512 512;" xml:space="preserve">
<g>
	<path style="fill:#FCB542;" d="M227.893,54.885L143.617,5.062c-20.04-11.847-46.001-2.008-52.926,20.219
		c-7.644,24.531-11.787,59.787,1.146,103.975h136.056V54.885z"/>
	<path style="fill:#FCB542;" d="M284.112,54.885l84.276-49.822c20.04-11.847,46.001-2.008,52.926,20.219
		c7.644,24.531,11.787,59.787-1.146,103.975H284.112V54.885z"/>
</g>
<g>
	<path style="fill:#F97A41;" d="M229.579,89.127c-0.309,0-0.622-0.019-0.937-0.059c-1.131-0.141-27.998-3.581-54.112-14.934
		c-3.799-1.651-5.54-6.07-3.888-9.868c1.65-3.799,6.066-5.542,9.868-3.888c24.153,10.501,49.73,13.773,49.986,13.805
		c4.11,0.512,7.027,4.259,6.515,8.37C236.539,86.349,233.307,89.127,229.579,89.127z"/>
	<path style="fill:#F97A41;" d="M284.101,89.127c-3.729,0-6.96-2.778-7.433-6.574c-0.512-4.11,2.405-7.858,6.516-8.37
		c0.438-0.056,26.002-3.378,49.985-13.805c3.797-1.653,8.218,0.089,9.868,3.888c1.651,3.799-0.089,8.217-3.888,9.868
		c-26.114,11.354-52.981,14.793-54.112,14.934C284.723,89.107,284.41,89.127,284.101,89.127z"/>
	<path style="fill:#F97A41;" d="M177.524,116.857c-2.896,0-5.654-1.687-6.882-4.512c-1.652-3.798,0.089-8.217,3.888-9.868
		c26.114-11.354,52.981-14.793,54.112-14.934c4.11-0.517,7.857,2.405,8.369,6.516s-2.405,7.857-6.516,8.369
		c-0.438,0.056-26.002,3.378-49.985,13.805C179.537,116.657,178.522,116.857,177.524,116.857z"/>
	<path style="fill:#F97A41;" d="M336.155,116.857c-0.998,0-2.013-0.201-2.986-0.624c-24.07-10.465-49.732-13.773-49.989-13.806
		c-4.108-0.516-7.023-4.264-6.51-8.372c0.514-4.109,4.265-7.029,8.367-6.512c1.131,0.141,27.998,3.58,54.112,14.934
		c3.799,1.651,5.539,6.07,3.888,9.868C341.81,115.17,339.051,116.857,336.155,116.857z"/>
</g>
<path style="fill:#E59C33;" d="M420.166,129.261h-23.978c12.934-44.195,8.792-79.454,1.147-103.98
	c-3.575-11.467-12.211-19.639-22.501-23.224c18.812-6.653,40.28,3.326,46.478,23.224C428.958,49.807,433.1,85.066,420.166,129.261z"
	/>
<path style="fill:#31A1F4;" d="M55.094,213.077V506.69c0,2.853,2.313,5.165,5.165,5.165h389.413c2.853,0,5.165-2.313,5.165-5.165
	V213.077H55.094z"/>
<path style="fill:#0781E5;" d="M455.87,213.076v293.613c0,2.851-2.314,5.165-5.165,5.165h-28.1c2.851,0,5.165-2.314,5.165-5.165
	V213.076H455.87z"/>
<g>
	<polygon style="fill:#F97A41;" points="56.127,410.644 385.796,213.077 455.871,213.077 455.871,228.723 56.127,468.743 	"/>
	<polygon style="fill:#F97A41;" points="56.127,287.953 183.339,213.077 275.906,213.077 56.127,344.789 	"/>
	<polygon style="fill:#F97A41;" points="91.168,511.854 455.871,293.291 455.871,348.561 182.65,511.855 	"/>
	<polygon style="fill:#F97A41;" points="273.607,512 455.957,402.719 455.871,454.623 358.273,511.856 	"/>
</g>
<path style="fill:#54BCFC;" d="M474.731,213.077H37.266c-2.853,0-5.165-2.313-5.165-5.165v-73.489c0-2.853,2.313-5.165,5.165-5.165
	h437.465c2.853,0,5.165,2.313,5.165,5.165v73.489C479.897,210.764,477.584,213.077,474.731,213.077z"/>
<path style="fill:#FFE269;" d="M318.714,130.175v-0.918v-24.291c0-32.37-26.241-58.611-58.611-58.611h-8.201
	c-32.37,0-58.611,26.241-58.611,58.611v24.291v0.918"/>
<path style="fill:#0781E5;" d="M479.899,134.427v73.483c0,2.851-2.314,5.165-5.165,5.165h-26.426c2.851,0,5.165-2.314,5.165-5.165
	v-73.483c0-2.862-2.314-5.165-5.165-5.165h26.426C477.585,129.261,479.899,131.565,479.899,134.427z"/>
<path style="fill:#F7D443;" d="M318.714,130.171h0.003v-25.207c0-32.366-26.24-58.607-58.617-58.607h-8.203
	c-3.389,0-6.715,0.289-9.949,0.847c27.635,4.721,48.658,28.782,48.658,57.76v25.207H318.714z"/>
<path id="SVGCleanerId_0" style="fill:#F7D443;" d="M309.048,213.076v126.542c0,3.657-3.698,6.157-7.087,4.794l-11.695-4.69
	c0.01-0.031,0.01-0.072,0.01-0.103V213.076H309.048z"/>
<path style="fill:#FFE269;" d="M256.002,213.077h-53.047v126.541c0,3.657,3.695,6.156,7.089,4.794l44.034-17.668
	c1.235-0.495,2.613-0.495,3.847,0l44.034,17.668c3.394,1.362,7.089-1.137,7.089-4.794V213.077H256.002z"/>
<g>
	<path id="SVGCleanerId_0_1_" style="fill:#F7D443;" d="M309.048,213.076v126.542c0,3.657-3.698,6.157-7.087,4.794l-11.695-4.69
		c0.01-0.031,0.01-0.072,0.01-0.103V213.076H309.048z"/>
</g>
<rect x="193.29" y="129.18" style="fill:#F7D443;" width="125.42" height="83.89"/>
<rect x="290.28" y="129.19" style="fill:#EAC426;" width="28.438" height="83.89"/>
<g>
</g>
<g>
</g>
<g>
</g>
<g>
</g>
<g>
</g>
<g>
</g>
<g>
</g>
<g>
</g>
<g>
</g>
<g>
</g>
<g>
</g>
<g>
</g>
<g>
</g>
<g>
</g>
<g>
</g>
</svg>
