<?xml version="1.0" encoding="iso-8859-1"?>
<!-- Generator: Adobe Illustrator 19.0.0, SVG Export Plug-In . SVG Version: 6.00 Build 0)  -->
<svg version="1.1" id="Capa_1" xmlns="http://www.w3.org/2000/svg" xmlns:xlink="http://www.w3.org/1999/xlink" x="0px" y="0px"
	 viewBox="0 0 467.312 467.312" style="enable-background:new 0 0 467.312 467.312;" xml:space="preserve">
<path style="fill:#FFDB00;" d="M299.312,276l-40,40v64h-64l-40,40l-40-40h-64v-64l-40-40l40-40v-64h64c0,0,0.08,0,0.16-0.08
	c2.88-2.32,39.36-38.32,40.56-39.2l33.84,33.92l5.12,5.12l64.32,0.24v64L299.312,276z"/>
<circle style="fill:#F5E17F;" cx="155.312" cy="276" r="80"/>
<path style="fill:#FF663F;" d="M459.312,244v72h-48v-72c0-83.92-68.08-152-152-152c-2.8,0-5.6,0.08-8.4,0.24
	c-2.4,0.08-4.72,0.32-7.12,0.56c-1.84,0.16-3.76,0.4-5.6,0.72c-0.48,0-1.04,0.08-1.52,0.16c-1.92,0.24-3.76,0.56-5.68,0.96
	c-2.24,0.4-4.4,0.88-6.56,1.44c-1.12,0.16-2.24,0.48-3.36,0.8c-6.24,1.6-12.24,3.52-18.16,6c-1.92,0.72-3.84,1.52-5.76,2.4
	c-0.4,0.16-0.72,0.4-1.12,0.56c-2,0.88-4,1.84-5.92,2.88c-1.92,0.88-3.84,1.92-5.76,3.04c-0.4,0.32-0.8,0.48-1.2,0.72
	c-7.76,4.48-15.12,9.68-21.92,15.6c-1.76,1.36-3.52,2.88-5.2,4.64c-1.2,0.88-37.68,36.88-40.56,39.2c-0.08,0.08-0.16,0.08-0.16,0.08
	h-48.16l20.08-29.92c34.8-58.72,98.8-98.08,172.08-98.08C369.792,44,459.312,133.52,459.312,244z"/>
<path style="fill:#FFB01C;" d="M411.312,244v40h-48v-40c0-57.44-46.56-104-104-104c-26.72,0-51.12,10.08-69.44,26.64l-33.84-33.92
	c1.68-1.6,3.44-3.12,5.2-4.64c6.8-5.84,14.16-11.04,21.92-15.6c0.4-0.24,0.8-0.4,1.2-0.72c1.92-1.04,3.84-2.08,5.76-3.04
	c2-1.04,3.92-2,5.92-2.88c0.4-0.16,0.72-0.4,1.12-0.56c1.92-0.8,3.84-1.6,5.76-2.4c5.92-2.4,11.92-4.4,18.16-6
	c1.12-0.32,2.24-0.64,3.36-0.8c2.16-0.56,4.32-1.04,6.56-1.44c1.84-0.32,3.76-0.64,5.68-0.96c0.48-0.08,1.04-0.16,1.52-0.16
	c1.84-0.32,3.76-0.56,5.6-0.72c2.4-0.24,4.72-0.48,7.12-0.56c2.8-0.16,5.6-0.24,8.4-0.24C343.232,92,411.312,160.08,411.312,244z"/>
<path style="fill:#8AD169;" d="M363.312,244v72h-48v-72c0-30.96-25.04-56-56-56v-16l-64.32-0.24l-5.12-5.12
	c18.32-16.56,42.72-26.64,69.44-26.64C316.752,140,363.312,186.56,363.312,244z"/>
<g>
	<path style="fill:#4D4D4D;" d="M155.312,188c-48.52,0-88,39.48-88,88s39.48,88,88,88s88-39.48,88-88S203.832,188,155.312,188z
		 M155.312,348c-39.704,0-72-32.304-72-72s32.296-72,72-72s72,32.304,72,72S195.016,348,155.312,348z"/>
	<path style="fill:#4D4D4D;" d="M259.312,36c-73.104,0-141.68,39.088-178.72,101.624L62.896,164H43.312v68.688L0,276l43.312,43.312
		V388H112l43.312,43.312L198.624,388h68.688v-68.688l40-40V324h64v-32h32v32h64v-80C467.312,129.312,374.008,36,259.312,36z
		 M251.312,312.688V372H192l-36.688,36.688L118.624,372H59.312v-59.312L22.624,276l36.688-36.688V180h56l3.472-0.08l2.128-2.128
		c1.112-0.968,3.432-3.168,7.264-6.872c4.056-3.92,9.816-9.52,17.744-17.272c2.144-2.096,4.192-4.096,6.072-5.936
		c1.408-1.368,2.768-2.696,3.912-3.816l22.376,22.424l-0.008,0.008l7.728,7.728l3.6,3.608l0,0l2.064,2.064l59.648,0.24V196v43.312
		L288,276L251.312,312.688z M307.312,272.688l-40-40V196.72c22.664,3.824,40,23.536,40,47.28V272.688z M355.312,292v16h-32v-64
		c0-32.576-24.48-59.552-56-63.504v-16.464L206.72,163.8c0.488-0.32,0.96-0.672,1.456-0.992c0.808-0.512,1.624-1.008,2.448-1.496
		c1.552-0.92,3.136-1.784,4.744-2.616c0.784-0.408,1.568-0.832,2.36-1.216c2.144-1.032,4.328-1.992,6.544-2.864
		c0.248-0.096,0.488-0.216,0.744-0.312c2.456-0.944,4.968-1.752,7.504-2.488c0.8-0.232,1.616-0.424,2.424-0.632
		c1.8-0.472,3.608-0.896,5.432-1.264c0.92-0.184,1.84-0.352,2.768-0.512c1.84-0.312,3.696-0.56,5.56-0.768
		c0.84-0.096,1.672-0.208,2.512-0.28c2.68-0.216,5.384-0.36,8.096-0.36c52.936,0,96,43.064,96,96V292z M403.312,276h-32v-32
		c0-61.76-50.24-112-112-112c-3.32,0-6.616,0.168-9.896,0.456c-1.072,0.096-2.128,0.28-3.2,0.4c-2.192,0.256-4.384,0.52-6.544,0.904
		c-1.256,0.224-2.488,0.52-3.728,0.784c-1.952,0.416-3.904,0.84-5.824,1.36c-1.296,0.352-2.576,0.76-3.856,1.152
		c-1.832,0.568-3.648,1.152-5.44,1.808c-1.296,0.472-2.576,0.992-3.856,1.512c-1.736,0.712-3.448,1.456-5.152,2.248
		c-1.264,0.592-2.52,1.208-3.76,1.848c-1.664,0.856-3.304,1.768-4.92,2.712c-1.2,0.704-2.4,1.4-3.576,2.144
		c-1.608,1.024-3.176,2.112-4.736,3.216c-1.112,0.792-2.24,1.56-3.328,2.4c-0.376,0.288-0.776,0.536-1.144,0.824l-22.608-22.656
		c1.192-1.008,2.48-1.944,3.712-2.92c4.96-3.872,10.2-7.56,15.896-10.904c0.424-0.224,0.832-0.464,1.24-0.736
		c1.704-0.92,3.416-1.84,5.2-2.744c1.84-0.96,3.608-1.84,5.216-2.552c0.496-0.2,0.944-0.432,1.456-0.696l2.12-0.888
		c1.104-0.472,2.152-0.944,3.4-1.416c5.712-2.304,11.296-4.152,17.312-5.704c0.76-0.216,1.504-0.456,2.256-0.56l0.864-0.168
		c1.912-0.496,3.816-0.92,5.768-1.264c0.08-0.016,0.152-0.032,0.24-0.048l7.128-1.112c1.608-0.288,3.304-0.496,5.224-0.664
		c2.16-0.216,4.232-0.432,6.576-0.512c2.664-0.152,5.312-0.224,7.96-0.224c79.4,0,144,64.6,144,144V276z M451.312,308h-32v-16v-48
		c0-88.224-71.776-160-160-160c-2.944,0-5.904,0.08-8.672,0.24c-2.504,0.088-4.936,0.328-7.544,0.592
		c-1.888,0.168-3.856,0.4-5.768,0.72c-0.048,0-0.096,0.016-0.152,0.016c-0.56,0.048-1.128,0.112-1.504,0.176
		c-0.064,0.008-0.128,0.024-0.192,0.032c-0.04,0.008-0.08,0.008-0.12,0.016l-5.768,0.976c-2.32,0.408-4.552,0.904-6.792,1.472
		c-1.288,0.216-2.56,0.56-3.728,0.896c-7.048,1.816-13.344,3.896-18.976,6.264c-2.104,0.792-4.2,1.664-5.88,2.448
		c-0.528,0.208-1.024,0.456-1.408,0.672c-2.192,0.968-4.4,2.024-6.056,2.936c-0.072,0.032-0.152,0.08-0.224,0.112h-0.008h-0.008
		c-2.056,0.96-4.136,2.08-6.632,3.576l-0.728,0.4c-8.328,4.808-16.128,10.352-22.816,16.192c-0.04,0.032-0.064,0.064-0.104,0.088
		c-0.072,0.064-0.16,0.12-0.232,0.184c-1.664,1.432-3.296,2.88-4.896,4.368c-0.152,0.152-0.344,0.288-0.496,0.44
		c-0.136,0.12-0.328,0.296-0.544,0.496c-0.064,0.056-0.12,0.112-0.2,0.184c-0.152,0.144-0.344,0.32-0.544,0.512
		c-0.208,0.2-0.464,0.44-0.728,0.696c-0.128,0.12-0.232,0.224-0.376,0.36c-0.48,0.464-1.032,0.992-1.712,1.648l-1.952,1.856
		l0.016,0.016c-2.304,2.24-5.456,5.32-9.864,9.624c-7.456,7.28-18.072,17.64-22.456,21.792H82.112l11.968-17.84
		C128.528,88.08,191.832,52,259.312,52c105.864,0,192,86.136,192,192V308z"/>
	<path style="fill:#4D4D4D;" d="M115.312,276h-16c0,30.88,25.128,56,56,56v-16C133.256,316,115.312,298.056,115.312,276z"/>
</g>
<g>
</g>
<g>
</g>
<g>
</g>
<g>
</g>
<g>
</g>
<g>
</g>
<g>
</g>
<g>
</g>
<g>
</g>
<g>
</g>
<g>
</g>
<g>
</g>
<g>
</g>
<g>
</g>
<g>
</g>
</svg>
