<?xml version="1.0" encoding="iso-8859-1"?>
<!-- Generator: Adobe Illustrator 19.0.0, SVG Export Plug-In . SVG Version: 6.00 Build 0)  -->
<svg version="1.1" id="Capa_1" xmlns="http://www.w3.org/2000/svg" xmlns:xlink="http://www.w3.org/1999/xlink" x="0px" y="0px"
	 viewBox="0 0 511.995 511.995" style="enable-background:new 0 0 511.995 511.995;" xml:space="preserve">
<g>
	<g transform="translate(1 1)">
		<rect x="237.931" y="189.929" style="fill:#9E9E9E;" width="34.133" height="223.317"/>
		<path style="fill:#4E342E;" d="M314.731,380.154v45.508H195.264v-45.508c0-3.132,3.84-5.692,8.533-5.692h102.4
			C310.891,374.462,314.731,377.022,314.731,380.154z"/>
		<path style="fill:#424242;" d="M357.398,434.195v51.2h-204.8v-51.2c0-4.713,3.82-8.533,8.533-8.533h187.733
			C353.577,425.662,357.398,429.482,357.398,434.195z"/>
		<path style="fill:#9E9E9E;" d="M331.798,434.195v51.2h-179.2v-51.2c0-4.713,3.82-8.533,8.533-8.533h162.133
			C327.977,425.662,331.798,429.482,331.798,434.195z"/>
		<path style="fill:#4E342E;" d="M434.198,468.329v34.133h-358.4v-34.133c0-4.713,3.821-8.533,8.533-8.533h341.333
			C430.377,459.795,434.198,463.616,434.198,468.329z"/>
		<g>
			<path style="fill:#795548;" d="M289.131,380.154v45.508h-93.867v-45.508c0-3.132,3.84-5.692,8.533-5.692h76.8
				C285.291,374.462,289.131,377.022,289.131,380.154z"/>
			<path style="fill:#795548;" d="M408.598,468.329v34.133h-332.8v-34.133c0-4.713,3.821-8.533,8.533-8.533h315.733
				C404.777,459.795,408.598,463.616,408.598,468.329z"/>
		</g>
		<path style="fill:#FDD834;" d="M327.36,162.835c-2.046,2.1-2.993,5.036-2.56,7.936l12.544,73.813
			c0.654,3.262-0.62,6.61-3.277,8.612c-2.657,2.002-6.226,2.303-9.181,0.775l-13.056-6.912l-52.821-28.075
			c-2.499-1.366-5.522-1.366-8.021,0l-8.789,4.693l-57.088,30.293c-2.553,1.329-5.602,1.293-8.124-0.096s-4.18-3.948-4.42-6.816
			c-0.098-0.824-0.069-1.659,0.085-2.475l12.544-73.813c0.433-2.9-0.514-5.836-2.56-7.936l-52.992-52.224
			c-2.387-2.343-3.255-5.829-2.246-9.019c1.009-3.189,3.724-5.541,7.025-6.085l48.384-7.168l25.088-3.669
			c2.802-0.463,5.213-2.24,6.485-4.779l27.819-57.003l5.12-10.496c1.426-2.944,4.409-4.814,7.68-4.814s6.254,1.87,7.68,4.814
			l32.939,67.499c1.273,2.539,3.683,4.315,6.485,4.779l48.384,7.168l25.088,3.669c3.301,0.544,6.016,2.896,7.025,6.085
			c1.009,3.189,0.141,6.675-2.246,9.019L327.36,162.835z"/>
		<path style="fill:#FFEB3A;" d="M301.76,162.835c-2.046,2.1-2.993,5.036-2.56,7.936l12.544,73.813
			c0.155,0.816,0.184,1.65,0.085,2.475l-52.821-28.075c-2.499-1.366-5.522-1.366-8.021,0l-8.789,4.693l-8.789-4.693
			c-2.499-1.366-5.522-1.366-8.021,0l-52.821,28.075c-0.098-0.824-0.069-1.659,0.085-2.475l12.544-73.813
			c0.433-2.9-0.514-5.836-2.56-7.936l-52.992-52.224c-2.387-2.343-3.255-5.829-2.246-9.019c1.009-3.189,3.724-5.541,7.025-6.085
			l48.384-7.168l25.088-3.669c2.802-0.463,5.213-2.24,6.485-4.779l27.819-57.003l27.819,57.003c1.273,2.539,3.683,4.315,6.485,4.779
			l73.472,10.837c3.301,0.544,6.016,2.896,7.025,6.085c1.009,3.189,0.141,6.675-2.246,9.019L301.76,162.835z"/>
	</g>
	<g>
		<path d="M204.798,366.929c-9.426,0-17.067,7.641-17.067,17.067v34.133h-25.6c-9.426,0-17.067,7.641-17.067,17.067v17.067H85.331
			c-9.426,0-17.067,7.641-17.067,17.067v34.133c0,4.713,3.821,8.533,8.533,8.533h358.4c4.713,0,8.533-3.821,8.533-8.533v-34.133
			c0-9.426-7.641-17.067-17.067-17.067h-59.733v-17.067c0-9.426-7.641-17.067-17.067-17.067h-25.6v-34.133
			c0-9.426-7.641-17.067-17.067-17.067h-25.6V241.105l40.286,21.41c5.713,3.069,12.679,2.591,17.92-1.229
			c5.417-3.891,8.124-10.542,6.963-17.109l-12.425-74.24l52.975-52.224c4.744-4.658,6.423-11.611,4.326-17.92
			c-1.993-6.231-7.36-10.783-13.833-11.733l-73.489-10.906L271.358,9.681C268.517,3.764,262.535,0,255.972,0
			s-12.545,3.764-15.386,9.681l-32.973,67.567l-73.438,10.795c-6.482,0.941-11.861,5.495-13.858,11.733
			c-2.097,6.309-0.418,13.262,4.326,17.92l53.077,52.617l-12.527,73.856c-1.161,6.567,1.546,13.219,6.963,17.109
			c5.239,3.824,12.208,4.302,17.92,1.229l40.32-21.427v125.85H204.798z M426.664,494.929H85.331v-25.6h341.333V494.929z
			 M349.864,452.262H162.131v-17.067h187.733V452.262z M307.198,418.129h-102.4v-34.133h102.4V418.129z M182.048,247.027
			l12.51-73.856c0.948-5.619-0.895-11.347-4.941-15.36l-52.958-52.855l73.438-10.786c5.61-0.841,10.442-4.399,12.911-9.506
			l32.99-67.601l0.068,0.119l32.93,67.465c2.474,5.106,7.308,8.663,12.919,9.506l73.446,11.418l-52.983,52.215
			c-4.046,4.013-5.888,9.741-4.941,15.36l12.459,74.317l-65.929-35.046c-4.986-2.65-10.963-2.65-15.949,0L182.048,247.027z
			 M247.464,232l8.533-4.523l8.533,4.548v134.903h-17.067V232z"/>
		<path d="M219.364,139.029l-17.067-17.067c-3.348-3.234-8.671-3.188-11.962,0.104s-3.338,8.614-0.104,11.962l17.067,17.067
			c3.348,3.234,8.671,3.188,11.962-0.104C222.552,147.699,222.598,142.377,219.364,139.029z"/>
		<path d="M307.198,153.595c2.263,0,4.433-0.9,6.033-2.5l17.067-17.067c3.234-3.348,3.188-8.671-0.104-11.962
			s-8.614-3.338-11.962-0.104l-17.067,17.067c-2.44,2.44-3.169,6.11-1.849,9.298C300.636,151.515,303.747,153.595,307.198,153.595z"
			/>
		<path d="M269.25,195.409l17.067,8.533c4.218,2.107,9.345,0.395,11.452-3.823c2.107-4.218,0.395-9.345-3.823-11.452l-17.067-8.533
			c-4.218-2.107-9.345-0.395-11.452,3.823S265.032,193.302,269.25,195.409z"/>
		<path d="M235.117,180.091l-17.067,8.533c-4.218,2.107-5.93,7.234-3.823,11.452c2.107,4.218,7.234,5.93,11.452,3.823l17.067-8.533
			c4.218-2.107,5.93-7.234,3.823-11.452C244.462,179.696,239.335,177.985,235.117,180.091z"/>
		<path d="M255.998,102.395c4.713,0,8.533-3.821,8.533-8.533V76.795c0-4.713-3.821-8.533-8.533-8.533
			c-4.713,0-8.533,3.82-8.533,8.533v17.067C247.464,98.575,251.285,102.395,255.998,102.395z"/>
	</g>
</g>
<g>
</g>
<g>
</g>
<g>
</g>
<g>
</g>
<g>
</g>
<g>
</g>
<g>
</g>
<g>
</g>
<g>
</g>
<g>
</g>
<g>
</g>
<g>
</g>
<g>
</g>
<g>
</g>
<g>
</g>
</svg>
