<?xml version="1.0" encoding="iso-8859-1"?>
<!-- Generator: Adobe Illustrator 19.0.0, SVG Export Plug-In . SVG Version: 6.00 Build 0)  -->
<svg version="1.1" id="Capa_1" xmlns="http://www.w3.org/2000/svg" xmlns:xlink="http://www.w3.org/1999/xlink" x="0px" y="0px"
	 viewBox="0 0 512.002 512.002" style="enable-background:new 0 0 512.002 512.002;" xml:space="preserve">
<g>
	<g transform="translate(1)">
		<path style="fill:#4527A0;" d="M24.601,145.069h460.8c9.426,0,17.067,7.641,17.067,17.067v324.267
			c0,9.426-7.641,17.067-17.067,17.067h-460.8c-9.426,0-17.067-7.641-17.067-17.067V162.135
			C7.534,152.71,15.175,145.069,24.601,145.069z"/>
		<path style="fill:#673AB7;" d="M24.601,145.069h435.2c9.426,0,17.067,7.641,17.067,17.067v324.267
			c0,9.426-7.641,17.067-17.067,17.067h-435.2c-9.426,0-17.067-7.641-17.067-17.067V162.135
			C7.534,152.71,15.175,145.069,24.601,145.069z"/>
		<path style="fill:#1566C0;" d="M84.334,179.202h341.333c4.713,0,8.533,3.821,8.533,8.533v273.067c0,4.713-3.82,8.533-8.533,8.533
			H84.334c-4.713,0-8.533-3.82-8.533-8.533V187.735C75.801,183.023,79.622,179.202,84.334,179.202z"/>
		<path style="fill:#2296F3;" d="M84.334,179.202h315.733c4.713,0,8.533,3.821,8.533,8.533v273.067c0,4.713-3.82,8.533-8.533,8.533
			H84.334c-4.713,0-8.533-3.82-8.533-8.533V187.735C75.801,183.023,79.622,179.202,84.334,179.202z"/>
		<path style="fill:#4E342E;" d="M127.001,34.135h256c4.713,0,8.533,3.821,8.533,8.533v205.739c0,4.713-3.821,8.533-8.533,8.533
			h-256c-4.713,0-8.533-3.821-8.533-8.533V42.669C118.468,37.956,122.288,34.135,127.001,34.135z"/>
		<path style="fill:#795548;" d="M127.001,34.135h230.4c4.713,0,8.533,3.821,8.533,8.533v205.739c0,4.713-3.82,8.533-8.533,8.533
			h-230.4c-4.713,0-8.533-3.821-8.533-8.533V42.669C118.468,37.956,122.288,34.135,127.001,34.135z"/>
		<path style="fill:#CFD8DC;" d="M255.001,43.607v213.333c-5.602-10.598-14.624-18.989-25.6-23.808
			c-21.519-9.684-45.239-13.426-68.693-10.837h-0.256c-2.56,0.171-5.12,0.427-7.851,0.683V9.645
			c2.731-0.256,5.291-0.512,7.851-0.683h0.256C239.044,3.927,255.001,43.607,255.001,43.607z"/>
		<path style="fill:#F4F4F4;" d="M229.401,43.607v189.525c-21.519-9.684-45.239-13.426-68.693-10.837h-0.256
			c-2.56-0.171-5.12-0.341-7.851-0.341V9.645c2.731-0.256,5.291-0.512,7.851-0.683h0.256
			C217.028,12.887,229.401,43.607,229.401,43.607z"/>
		<path style="fill:#CFD8DC;" d="M357.401,9.645v213.333c-8.501-0.906-17.053-1.248-25.6-1.024V9.645
			c-2.731-0.256-5.291-0.512-7.851-0.683C335.1,8.233,346.291,8.461,357.401,9.645z"/>
		<g>
			<path style="fill:#F4F4F4;" d="M331.801,9.645v212.309c-2.731,0-5.291,0.171-7.851,0.341h-0.256
				c-56.32,3.925-68.693,34.645-68.693,34.645V43.607c0,0,12.373-30.72,68.693-34.645h0.256
				C326.51,9.133,329.07,9.389,331.801,9.645z"/>
			<path style="fill:#F4F4F4;" d="M331.801,221.954v1.024c-2.731-0.256-5.291-0.512-7.851-0.683
				C326.51,222.125,329.07,221.954,331.801,221.954z"/>
		</g>
		<g>
			<path style="fill:#1566C0;" d="M212.334,298.669h-51.2c-9.426,0-17.067,7.641-17.067,17.067v68.267
				c-9.426,0-17.067,7.641-17.067,17.067s7.641,17.067,17.067,17.067c9.426,0,17.067-7.641,17.067-17.067v-85.333h51.2v51.2
				c-9.426,0-17.067,7.641-17.067,17.067c0,9.426,7.641,17.067,17.067,17.067c9.426,0,17.067-7.641,17.067-17.067v-68.267
				C229.401,306.31,221.76,298.669,212.334,298.669z"/>
			<path style="fill:#1566C0;" d="M383.001,298.669h-51.2c-9.426,0-17.067,7.641-17.067,17.067v68.267
				c-9.426,0-17.067,7.641-17.067,17.067s7.641,17.067,17.067,17.067c9.426,0,17.067-7.641,17.067-17.067v-85.333h51.2v51.2
				c-9.426,0-17.067,7.641-17.067,17.067c0,9.426,7.641,17.067,17.067,17.067c9.426,0,17.067-7.641,17.067-17.067v-68.267
				C400.068,306.31,392.427,298.669,383.001,298.669z"/>
		</g>
	</g>
	<g>
		<path d="M486.401,136.535h-85.333V42.669c0-9.426-7.641-17.067-17.067-17.067h-17.067V9.662c0-4.382-3.32-8.052-7.68-8.491
			c-62.293-6.221-91.093,13.713-103.253,27.443C243.773,14.901,214.964-4.998,152.748,1.171c-4.36,0.438-7.68,4.108-7.68,8.491
			v15.94h-17.067c-9.426,0-17.067,7.641-17.067,17.067v93.867H25.601c-14.138,0-25.6,11.462-25.6,25.6v324.267
			c0,14.138,11.462,25.6,25.6,25.6h460.8c14.138,0,25.6-11.462,25.6-25.6V162.135C512.001,147.997,500.54,136.535,486.401,136.535z
			 M128.001,265.508h256c9.426,0,17.067-7.641,17.067-17.067v-60.706h25.6v273.067H85.334V187.735h25.6v60.706
			C110.934,257.867,118.575,265.508,128.001,265.508z M384.001,42.669v205.773H273.546c11.597-9.89,35.84-21.743,84.011-16.956
			c2.4,0.241,4.789-0.544,6.578-2.162c1.789-1.618,2.809-3.917,2.809-6.329V42.669H384.001z M349.868,17.513v196.267
			c-44.979-2.739-70.903,8.789-85.333,20.181V45.604C267.948,39.554,286.201,13.297,349.868,17.513z M162.134,17.513
			c63.573-4.19,81.92,21.99,85.333,28.1v188.314c-12.971-10.24-35.234-20.591-72.252-20.591c-4.17,0-8.531,0.137-13.082,0.41V17.513
			z M128.001,42.669h17.067v180.326c0,2.412,1.02,4.711,2.809,6.329c1.789,1.618,4.178,2.403,6.578,2.162
			c48.085-4.77,72.388,7.04,84.011,16.956H128.001V42.669z M494.934,486.402c0,4.713-3.82,8.533-8.533,8.533h-460.8
			c-4.713,0-8.533-3.82-8.533-8.533V162.135c0-4.713,3.821-8.533,8.533-8.533h85.333v17.067h-25.6
			c-9.426,0-17.067,7.641-17.067,17.067v273.067c0,9.426,7.641,17.067,17.067,17.067h341.333c9.426,0,17.067-7.641,17.067-17.067
			V187.735c0-9.426-7.641-17.067-17.067-17.067h-25.6v-17.067h85.333c4.713,0,8.533,3.821,8.533,8.533V486.402z"/>
		<path d="M42.668,315.735c-4.713,0-8.533,3.821-8.533,8.533v25.6c0,4.713,3.821,8.533,8.533,8.533s8.533-3.821,8.533-8.533v-25.6
			C51.201,319.556,47.381,315.735,42.668,315.735z"/>
		<path d="M469.334,281.602c-4.713,0-8.533,3.821-8.533,8.533v51.2c0,4.713,3.821,8.533,8.533,8.533c4.713,0,8.533-3.82,8.533-8.533
			v-51.2C477.868,285.423,474.047,281.602,469.334,281.602z"/>
		<path d="M42.668,273.069c-4.713,0-8.533,3.82-8.533,8.533v8.533c0,4.713,3.821,8.533,8.533,8.533s8.533-3.821,8.533-8.533v-8.533
			C51.201,276.889,47.381,273.069,42.668,273.069z"/>
		<path d="M136.534,426.669c14.138,0,25.6-11.462,25.6-25.6v-85.333h51.2v44.237c-2.733-1.011-5.62-1.542-8.533-1.57
			c-14.138,0-25.6,11.462-25.6,25.6c0,14.138,11.462,25.6,25.6,25.6c14.139,0,25.6-11.462,25.6-25.6v-68.267
			c0-9.426-7.641-17.067-17.067-17.067h-51.2c-9.426,0-17.067,7.641-17.067,17.067v61.303c-2.733-1.011-5.62-1.542-8.533-1.57
			c-14.138,0-25.6,11.462-25.6,25.6S122.396,426.669,136.534,426.669z M204.801,392.535c-4.713,0-8.533-3.821-8.533-8.533
			c0-4.713,3.821-8.533,8.533-8.533c4.713,0,8.533,3.821,8.533,8.533C213.334,388.715,209.514,392.535,204.801,392.535z
			 M136.534,392.535c4.713,0,8.533,3.82,8.533,8.533s-3.82,8.533-8.533,8.533s-8.533-3.82-8.533-8.533
			S131.822,392.535,136.534,392.535z"/>
		<path d="M307.201,426.669c14.138,0,25.6-11.462,25.6-25.6v-85.333h51.2v44.237c-2.733-1.011-5.62-1.542-8.533-1.57
			c-14.138,0-25.6,11.462-25.6,25.6c0,14.138,11.462,25.6,25.6,25.6c14.138,0,25.6-11.462,25.6-25.6v-68.267
			c0-9.426-7.641-17.067-17.067-17.067h-51.2c-9.426,0-17.067,7.641-17.067,17.067v61.303c-2.733-1.011-5.62-1.542-8.533-1.57
			c-14.138,0-25.6,11.462-25.6,25.6S293.063,426.669,307.201,426.669z M375.468,392.535c-4.713,0-8.533-3.821-8.533-8.533
			c0-4.713,3.82-8.533,8.533-8.533s8.533,3.821,8.533,8.533C384.001,388.715,380.181,392.535,375.468,392.535z M307.201,392.535
			c4.713,0,8.533,3.82,8.533,8.533s-3.82,8.533-8.533,8.533s-8.533-3.82-8.533-8.533S302.488,392.535,307.201,392.535z"/>
		<path d="M185.669,68.013l34.133,8.533c0.675,0.172,1.369,0.258,2.065,0.256c4.305-0.009,7.93-3.224,8.452-7.497
			c0.523-4.273-2.22-8.267-6.396-9.314l-34.133-8.533c-2.986-0.819-6.18,0.044-8.348,2.254c-2.168,2.21-2.969,5.421-2.093,8.39
			c0.876,2.969,3.291,5.231,6.311,5.911H185.669z"/>
		<path d="M185.669,102.146l34.133,8.533c0.675,0.172,1.369,0.258,2.065,0.256c4.305-0.009,7.93-3.224,8.452-7.497
			c0.523-4.273-2.22-8.267-6.396-9.314l-34.133-8.533c-2.986-0.819-6.18,0.044-8.348,2.254c-2.168,2.21-2.969,5.421-2.093,8.39
			c0.876,2.969,3.291,5.231,6.311,5.911H185.669z"/>
		<path d="M185.669,144.813l34.133,8.533c0.675,0.172,1.369,0.258,2.065,0.256c4.305-0.009,7.93-3.224,8.452-7.497
			s-2.22-8.267-6.396-9.314l-34.133-8.533c-2.986-0.819-6.18,0.044-8.348,2.254c-2.168,2.21-2.969,5.421-2.093,8.39
			c0.876,2.969,3.291,5.231,6.311,5.911H185.669z"/>
		<path d="M185.669,187.479l34.133,8.533c0.675,0.172,1.369,0.258,2.065,0.256c4.305-0.009,7.93-3.224,8.452-7.497
			s-2.22-8.267-6.396-9.314l-34.133-8.533c-2.986-0.819-6.18,0.044-8.348,2.254c-2.168,2.21-2.969,5.421-2.093,8.39
			c0.876,2.969,3.291,5.231,6.311,5.911H185.669z"/>
		<path d="M290.134,76.802c0.699,0.003,1.396-0.083,2.074-0.256l34.133-8.533c3.02-0.68,5.436-2.942,6.311-5.911
			c0.876-2.969,0.075-6.18-2.093-8.39c-2.168-2.21-5.363-3.072-8.348-2.254l-34.133,8.533c-4.176,1.047-6.919,5.04-6.396,9.314
			C282.205,73.578,285.829,76.793,290.134,76.802z"/>
		<path d="M290.134,110.935c0.699,0.003,1.396-0.083,2.074-0.256l34.133-8.533c3.02-0.68,5.436-2.942,6.311-5.911
			c0.876-2.969,0.075-6.18-2.093-8.39c-2.168-2.21-5.363-3.072-8.348-2.254l-34.133,8.533c-4.176,1.047-6.919,5.04-6.396,9.314
			C282.205,107.712,285.829,110.926,290.134,110.935z"/>
		<path d="M290.134,153.602c0.699,0.003,1.396-0.083,2.074-0.256l34.133-8.533c3.02-0.68,5.436-2.942,6.311-5.911
			c0.876-2.969,0.075-6.18-2.093-8.39c-2.168-2.21-5.363-3.072-8.348-2.254l-34.133,8.533c-4.176,1.047-6.919,5.04-6.396,9.314
			S285.829,153.593,290.134,153.602z"/>
		<path d="M290.134,196.269c0.699,0.003,1.396-0.083,2.074-0.256l34.133-8.533c3.02-0.68,5.436-2.942,6.311-5.911
			c0.876-2.969,0.075-6.18-2.093-8.39c-2.168-2.21-5.363-3.072-8.348-2.254l-34.133,8.533c-4.176,1.047-6.919,5.04-6.396,9.314
			S285.829,196.26,290.134,196.269z"/>
	</g>
</g>
<g>
</g>
<g>
</g>
<g>
</g>
<g>
</g>
<g>
</g>
<g>
</g>
<g>
</g>
<g>
</g>
<g>
</g>
<g>
</g>
<g>
</g>
<g>
</g>
<g>
</g>
<g>
</g>
<g>
</g>
</svg>
